<?xml version="1.0" encoding="utf-8"?>
<!-- Generator: Adobe Illustrator 27.2.0, SVG Export Plug-In . SVG Version: 6.00 Build 0)  -->
<svg version="1.1" id="Capa_1" xmlns="http://www.w3.org/2000/svg" xmlns:xlink="http://www.w3.org/1999/xlink" x="0px" y="0px"
	 viewBox="0 0 79.2 79.1" style="enable-background:new 0 0 79.2 79.1;" xml:space="preserve">
<style type="text/css">
	.st0{fill:#DF2227;}
	.st1{fill:#FFFFFF;}
</style>
<g>
	<path class="st0" d="M58,79.1H21.1C9.5,79.1,0,69.6,0,57.9V21.1C0,9.5,9.5,0,21.1,0H58c11.7,0,21.1,9.5,21.1,21.1v36.8
		C79.2,69.6,69.7,79.1,58,79.1"/>
	<path class="st1" d="M63.6,39.2c0.4-2.8,0.4-5.6-0.1-8.3c-0.4-2.9-1.4-5.6-2.7-7.9c-2-3.4-4.7-6-8-7.7c-1.9-1-4-1.6-6.2-1.9
		c-1.2-0.2-2.4-0.2-3.5-0.2c-1.2,0-2.3,0.1-3.4,0.2c-3,0.4-6,1.5-8.8,3.1c-2.3,1.3-4.4,3-6.3,5c0,0,0,0,0,0
		c-0.7,0.7-1.3,1.4-1.9,2.1c-2.9,3.5-5,7.6-6.2,12c-1.2,4.1-1.4,8.3-0.8,12.5c0.4,2.9,1.4,5.5,2.7,7.9c2,3.4,4.6,5.9,7.9,7.6
		c1.9,1,4,1.6,6.1,1.9c1.2,0.2,2.3,0.2,3.5,0.2c1.2,0,2.3-0.1,3.4-0.2c3-0.4,6-1.5,8.8-3.1c3-1.7,5.7-4.1,8-7c2.3-2.8,4.1-6,5.6-9.7
		C62.5,43.8,63.2,41.6,63.6,39.2C63.6,39.2,63.6,39.2,63.6,39.2C63.6,39.2,63.6,39.2,63.6,39.2 M51.4,55.5c-1.1,1.1-2.3,2.1-3.5,3
		c-1.8,1.3-3.8,2.2-5.8,2.9c-2.7,0.8-5.3,1.1-8,0.9c-2.5-0.2-4.7-0.9-6.7-2c-2.7-1.5-4.8-3.7-6.4-6.6c-1.5-2.8-2.2-6.1-2.2-10.2
		c0-1.3,0.2-2.7,0.4-3.9c0.6-4,2.1-7.8,4.4-11.3c0.9-1.4,1.9-2.7,3-3.8c0,0,0.1-0.1,0.1-0.1c0.2-0.2,1.1-1.1,1.3-1.2
		c0.3-0.2,0.5-0.5,0.8-0.7c2.1-1.7,5.1-3.8,8.8-4.3c2.6-0.4,5.3,0.7,6.9,2.8c-1.4,0.8-2.7,1.9-4.4,3.3c-1.7,1.4-3.1,2.7-4.2,4.1
		c-2.4,2.8-4.2,5.6-5.4,8.6c-1.7,4.1-2.2,7.5-1.5,10.8c0.8,4,4.1,6.4,8.2,5.9c2.2-0.3,4.2-1.3,6.2-3.2c3-2.8,5-6.4,6.3-11
		c0.7-2.4,1-5,0.9-7.8c0-0.3,0-0.5,0-0.8c0-1.3,0-2.6-0.2-4c-0.2-1-0.4-1.9-0.6-2.8c-0.8-2.1-1.6-3.7-2.3-4.7c0,0,0,0,0,0
		c-0.1,0-0.2-0.3-0.3-0.4c-0.1-0.1-0.2-0.3-0.2-0.4c0-0.1-0.1-0.1-0.1-0.2c-0.5-0.6-1-1.1-1.5-1.5c2.4,0.3,4.5,0.9,6.5,1.9
		c2.7,1.5,4.9,3.7,6.4,6.7c1.5,2.9,2.2,6.1,2.2,10.3c0,1.2-0.1,2.4-0.3,3.6c-0.8,3.5-2,6.6-3.6,9.5C54.9,51.5,53.3,53.7,51.4,55.5
		 M46.1,24c0.5,1.6,0.8,3.2,0.9,4.7c0,0.2,0,0.5,0,0.7c0,0.5,0.1,1,0.1,1.4c-0.1,2.8-0.2,5.9-1.1,8.7c-1.2,3.7-2.9,6.5-5.3,8.6
		c-1.4,1.2-2.8,1.9-4.2,2c-1.5,0.1-3.3-0.5-4-2.4c-0.7-1.8-0.7-3.9,0-6.5c0.8-3.1,2.4-6.2,4.8-9.3C39.6,29.1,42.5,26.5,46.1,24"/>
</g>
</svg>
