<?xml version="1.0" encoding="utf-8"?>
<!-- Generator: Adobe Illustrator 27.2.0, SVG Export Plug-In . SVG Version: 6.00 Build 0)  -->
<svg version="1.1" id="Capa_1" xmlns="http://www.w3.org/2000/svg" xmlns:xlink="http://www.w3.org/1999/xlink" x="0px" y="0px"
	 viewBox="0 0 47.5 47.4" style="enable-background:new 0 0 47.5 47.4;" xml:space="preserve">
<style type="text/css">
	.st0{fill:#283230;}
	.st1{fill:#FAFBFC;}
</style>
<g>
	<path class="st0" d="M34.5,46.8H12.9c-6.8,0-12.4-5.5-12.4-12.4V12.9c0-6.8,5.5-12.4,12.4-12.4h21.6c6.8,0,12.4,5.5,12.4,12.4v21.5
		C46.9,41.3,41.4,46.8,34.5,46.8"/>
	<path class="st1" d="M28.4,28.2c-0.1-0.5-0.4-0.6-0.7,0c-1.6,3.6-4.8,6.4-8.4,8c-1.2,0.5-2.5,0.9-3.9,1.1c-1.7,0.2-3.6-0.2-4.5-1.9
		c-1.2-2.3-0.6-5.4,0.4-7.7c1.1-2.6,3.1-4.6,5.2-6.5c0.8-0.7,1.6-1.4,2.5-2c0.4-0.3,2.2-1.4,2.7-1.6c0.6-0.3,2.2-1.2,1.2-2
		c-1.7-1.5-5.7-1.2-7.7-0.8c-1.6,0.3-2.9-0.4-2.9-1.5c0-1.2,1.7-3,6.4-3c4.2,0,6.7,0.8,9.2,3c0.4,0.3,0.6,0.3,0.9,0.1
		c2.7-1.7,5.1-2.8,6.4-1.7c1.6,1.4,0.1,2.8-1.5,5.4c-1.5,2.5-2.3,5.8-0.5,9.9c2,4.6,4.1,6,4.1,7.2c0,1.2-1,2.6-3,2.6
		C31.1,36.7,29,33.6,28.4,28.2 M23.9,27c2.6-3.5,3.2-6.3,2.3-8.2c-0.2-0.5-0.5-0.5-0.9-0.2c-1.3,0.8-3.4,2.3-5.7,5.1
		c-3,3.7-3.9,6.5-2.6,7.4C18.3,32,21.4,30.4,23.9,27"/>
</g>
</svg>
